<svg version="1.1" xmlns="http://www.w3.org/2000/svg" xmlns:xlink="http://www.w3.org/1999/xlink" width="367.83406" height="153.14369" viewBox="0,0,367.83406,153.14369"><g transform="translate(-56.08297,-85.41014)"><g data-paper-data="{&quot;isPaintingLayer&quot;:true}" fill-rule="nonzero" stroke-linecap="butt" stroke-linejoin="miter" stroke-miterlimit="10" stroke-dasharray="" stroke-dashoffset="0" style="mix-blend-mode: normal"><path d="M191.216,201.79669c-3.75176,0 -7.18089,-0.63327 -10.28744,-1.89977c-3.08264,-1.26651 -5.78295,-3.04682 -8.10091,-5.34087c-2.29405,-2.31796 -4.07436,-5.01825 -5.34087,-8.10091c-1.26651,-3.10655 -1.89977,-6.51178 -1.89977,-10.21576c0,-3.70396 0.63327,-7.09726 1.89977,-10.17992c1.26651,-3.10655 3.04682,-5.80684 5.34087,-8.10091c2.31796,-2.29405 5.01827,-4.07436 8.10091,-5.34087c3.10655,-1.26651 6.51178,-1.89977 10.21576,-1.89977c3.70396,0 7.09726,0.63327 10.1799,1.89977c3.10655,1.26651 5.80686,3.04682 8.10093,5.34087c2.29405,2.29405 4.06239,4.99436 5.305,8.10091c1.24262,3.08264 1.86394,6.47597 1.86394,10.17992c0,3.65617 -0.62132,7.04945 -1.86394,10.1799c-1.24262,3.10655 -3.01096,5.81878 -5.305,8.13675c-2.29405,2.29405 -4.99438,4.07436 -8.10093,5.34087c-3.08264,1.26651 -6.45205,1.89977 -10.10822,1.89977zM191.1443,190.54145c1.91172,0 3.66812,-0.34649 5.26919,-1.03948c1.62496,-0.71689 3.03485,-1.72056 4.22966,-3.01096c1.19481,-1.2904 2.11485,-2.79588 2.76006,-4.51644c0.6691,-1.74443 1.00365,-3.65617 1.00365,-5.73514c0,-2.0551 -0.33454,-3.94293 -1.00365,-5.66348c-0.64521,-1.74443 -1.56523,-3.26185 -2.76006,-4.55228c-1.19481,-1.2904 -2.60472,-2.28212 -4.22966,-2.97512c-1.60107,-0.71689 -3.35745,-1.07532 -5.26919,-1.07532c-1.93561,0 -3.7159,0.35843 -5.34087,1.07532c-1.60107,0.693 -3.01096,1.68472 -4.22968,2.97512c-1.21872,1.2904 -2.15069,2.80783 -2.79588,4.55228c-0.62132,1.72056 -0.93197,3.60838 -0.93197,5.66348c0,2.07899 0.31065,4.00266 0.93197,5.771c0.64521,1.74443 1.57716,3.24993 2.79588,4.51644c1.21872,1.26651 2.62861,2.25823 4.22968,2.9751c1.62496,0.693 3.40525,1.03948 5.34087,1.03948z" data-paper-data="{&quot;index&quot;:null}" fill="#a400f8" stroke="none" stroke-width="1"/><path d="M382.98232,201.0798v-49.21482h22.15205c3.13044,0 5.97413,0.68105 8.53106,2.04315c2.55693,1.33821 4.56422,3.20214 6.02192,5.59178c1.45767,2.36575 2.18653,5.04214 2.18653,8.02921c0,3.10655 -0.72886,5.89048 -2.18653,8.35182c-1.45769,2.46134 -3.45304,4.39695 -5.98608,5.80684c-0.26876,0.14705 -0.54112,0.2863 -0.81711,0.41773l11.03287,18.97425h-13.65683l-9.74555,-17.313h-6.13367v17.313zM394.38094,174.62639h9.67809c1.21872,0 2.28212,-0.26286 3.19017,-0.78859c0.93197,-0.54962 1.63691,-1.31432 2.11485,-2.29407c0.50181,-0.97975 0.75273,-2.10288 0.75273,-3.36939c0,-1.26651 -0.28676,-2.37769 -0.86027,-3.33355c-0.54962,-0.97975 -1.35015,-1.72056 -2.40159,-2.22237c-1.05143,-0.52573 -2.32991,-0.78859 -3.83539,-0.78859h-8.63858z" data-paper-data="{&quot;index&quot;:null}" fill="#00c1f5" stroke="none" stroke-width="1"/><path d="M56.08297,201.0798v-49.21482h10.68173l23.01241,31.35442c-0.03845,-0.33518 -0.07433,-0.6665 -0.10763,-0.99394c-0.11949,-1.40989 -0.23897,-2.78393 -0.35846,-4.12214c-0.11949,-1.3621 -0.21508,-2.74809 -0.28676,-4.15798c-0.07168,-1.40989 -0.11949,-2.93926 -0.14338,-4.58811c-0.02389,-1.64886 -0.03584,-3.42915 -0.03584,-5.34087v-12.15135h11.61368v49.21482h-10.82511l-22.83474,-30.7297c0.02516,0.23757 0.0496,0.46819 0.07333,0.69182c0.16727,1.55326 0.31065,2.93928 0.43013,4.158c0.11949,1.21872 0.19119,2.31796 0.21508,3.29771c0.04779,0.97975 0.08362,1.95951 0.10754,2.93926c0.02389,0.95586 0.03584,2.01926 0.03584,3.19017v16.45273z" data-paper-data="{&quot;index&quot;:null}" fill="#a400f8" stroke="none" stroke-width="1"/><path d="M322.61286,201.0798l19.49953,-49.21482h10.10822l19.35615,49.21482h-12.11553l-3.50307,-9.42717h-18.00341l-3.51315,9.42717zM350.17746,176.09603c-0.38235,-0.97975 -0.76467,-2.03121 -1.14702,-3.15434c-0.35846,-1.12313 -0.72884,-2.28212 -1.11118,-3.47695c-0.30183,-1.00614 -0.60368,-1.99532 -0.90554,-2.96757c-0.31947,0.99868 -0.63893,1.98789 -0.9584,2.96757c-0.33456,1.09924 -0.71689,2.19848 -1.14702,3.29771c-0.43013,1.09924 -0.82445,2.23431 -1.18288,3.40525l-2.41777,6.48789h11.30734z" data-paper-data="{&quot;index&quot;:null}" fill="#00c1f5" stroke="none" stroke-width="1"/><path d="M118.12662,201.0798v-49.21482h34.30342v10.1799h-22.72556v9.14041h19.57123v9.71393h-19.57123v10.00068h23.44245v10.1799z" data-paper-data="{&quot;index&quot;:null}" fill="#a400f8" stroke="none" stroke-width="1"/><path d="M247.48183,201.79669c-3.24991,0 -6.17724,-0.38235 -8.78196,-1.14702c-2.58082,-0.78859 -4.88682,-1.92367 -6.91802,-3.40525c-2.00729,-1.48159 -3.81149,-3.22604 -5.41257,-5.23333l7.24064,-8.24428c2.34185,3.15434 4.69565,5.26917 7.0614,6.34451c2.38964,1.07535 4.85098,1.61302 7.38402,1.61302c1.26651,0 2.41355,-0.15532 3.44109,-0.466c1.02754,-0.33454 1.81615,-0.81248 2.36577,-1.4338c0.57351,-0.64521 0.86027,-1.44573 0.86027,-2.40159c0,-0.693 -0.17924,-1.31432 -0.53767,-1.86394c-0.35843,-0.57351 -0.84832,-1.0634 -1.46962,-1.46964c-0.5974,-0.43013 -1.31432,-0.82443 -2.15069,-1.18286c-0.83637,-0.35846 -1.7325,-0.65716 -2.68836,-0.89613c-0.93197,-0.26286 -1.88783,-0.48986 -2.86758,-0.68105c-2.7242,-0.62132 -5.08997,-1.37405 -7.09726,-2.25823c-2.00729,-0.88416 -3.68006,-1.97147 -5.01827,-3.26188c-1.33821,-1.2904 -2.34185,-2.77199 -3.01096,-4.44474c-0.64521,-1.67275 -0.96781,-3.53668 -0.96781,-5.59178c0,-2.19848 0.50181,-4.21771 1.50548,-6.05776c1.00367,-1.86394 2.3538,-3.46498 4.05044,-4.80319c1.72056,-1.33821 3.70396,-2.36575 5.95022,-3.08264c2.27015,-0.7408 4.62398,-1.11118 7.06142,-1.11118c3.22604,0 5.998,0.34649 8.31599,1.03948c2.31796,0.6691 4.31331,1.63691 5.98605,2.90342c1.67275,1.26651 3.09458,2.79588 4.26552,4.58811l-7.38402,7.09726c-0.97975,-1.21872 -2.0551,-2.22237 -3.22604,-3.01096c-1.14702,-0.81248 -2.36575,-1.42183 -3.65617,-1.82807c-1.26651,-0.43013 -2.58082,-0.64521 -3.9429,-0.64521c-1.40989,0 -2.62861,0.17922 -3.65617,0.53767c-1.00367,0.33454 -1.79223,0.82443 -2.36575,1.46964c-0.54962,0.62132 -0.82443,1.37405 -0.82443,2.25823c0,0.81248 0.23895,1.50548 0.71689,2.07899c0.47794,0.54962 1.11118,1.05143 1.89977,1.50548c0.78859,0.43013 1.69666,0.80051 2.7242,1.11118c1.05143,0.31067 2.13874,0.54964 3.26188,0.71691c2.58082,0.52573 4.91073,1.2187 6.98972,2.07899c2.07899,0.83637 3.88319,1.86394 5.41257,3.08266c1.52937,1.21872 2.70031,2.66445 3.51279,4.3372c0.81248,1.64886 1.2187,3.57252 1.2187,5.771c0,3.4172 -0.83637,6.32062 -2.50912,8.71028c-1.64886,2.36575 -3.91903,4.16995 -6.81051,5.41257c-2.86758,1.24262 -6.17724,1.86391 -9.92898,1.86391z" data-paper-data="{&quot;index&quot;:null}" fill="#00c1f5" stroke="none" stroke-width="1"/><path d="M291.73115,201.0798v-38.67646h-14.62463v-10.53835h41.54404v10.53835h-14.98311v38.67646z" data-paper-data="{&quot;index&quot;:null}" fill="#00c1f5" stroke="none" stroke-width="1"/><path d="M205.86688,238.24659v-21.09208h9.49375c1.34163,0 2.56033,0.29188 3.65617,0.87564c1.09584,0.57351 1.95611,1.37235 2.58082,2.39648c0.62472,1.01389 0.93709,2.16091 0.93709,3.44109c0,1.33136 -0.31237,2.52449 -0.93709,3.57935c-0.62472,1.05488 -1.47986,1.8844 -2.56546,2.48865c-0.11518,0.06302 -0.23192,0.1227 -0.3502,0.17904l4.72836,8.13183h-5.85292l-4.17668,-7.41986h-2.6287v7.41986zM210.75202,226.90942h4.14774c0.5223,0 0.97805,-0.11266 1.36722,-0.33796c0.39942,-0.23555 0.70152,-0.56327 0.90635,-0.98318c0.21508,-0.41991 0.32259,-0.90123 0.32259,-1.44402c0,-0.5428 -0.12289,-1.01901 -0.36868,-1.42868c-0.23555,-0.41991 -0.57863,-0.73738 -1.02924,-0.95244c-0.4506,-0.2253 -0.99854,-0.33796 -1.64376,-0.33796h-3.70223z" data-paper-data="{&quot;index&quot;:null}" fill="#6a009f" stroke="none" stroke-width="1"/><path d="M121.95952,238.24659v-21.09208h4.57787l9.86247,13.4376c-0.01648,-0.14365 -0.03185,-0.28565 -0.04611,-0.42596c-0.05121,-0.60425 -0.10242,-1.19313 -0.15362,-1.76664c-0.05121,-0.58376 -0.09217,-1.17774 -0.12289,-1.78199c-0.03072,-0.60425 -0.05121,-1.25969 -0.06145,-1.96635c-0.01025,-0.70664 -0.01537,-1.46964 -0.01537,-2.28895v-5.20773h4.97731v21.09208h-4.63932l-9.78631,-13.16989c0.01079,0.10183 0.02126,0.20066 0.03142,0.2965c0.0717,0.6657 0.13315,1.25969 0.18434,1.78199c0.05121,0.5223 0.08192,0.9934 0.09217,1.41331c0.02049,0.41991 0.03584,0.8398 0.04608,1.25969c0.01025,0.40964 0.01537,0.86539 0.01537,1.36722v7.05118z" data-paper-data="{&quot;index&quot;:null}" fill="#6a009f" stroke="none" stroke-width="1"/><path d="M231.13761,238.24659l8.35695,-21.09208h4.3321l8.29549,21.09208h-5.19236l-1.50131,-4.04022h-7.71575l-1.50564,4.04022zM242.95102,227.53927c-0.16385,-0.41991 -0.32774,-0.87051 -0.49159,-1.35186c-0.15362,-0.48134 -0.31235,-0.97805 -0.47622,-1.49011c-0.12935,-0.4312 -0.25874,-0.85512 -0.38808,-1.27181c-0.13692,0.428 -0.27383,0.85193 -0.41075,1.27181c-0.14338,0.47112 -0.30725,0.94219 -0.49159,1.41331c-0.18434,0.47112 -0.35333,0.95758 -0.50696,1.45939l-1.0362,2.78053h4.84599z" data-paper-data="{&quot;index&quot;:null}" fill="#6a009f" stroke="none" stroke-width="1"/><path d="M179.62583,238.24659v-21.09208h14.70146v4.36281h-9.73952v3.91731h8.38766v4.1631h-8.38766v4.28601h10.04677v4.36281z" data-paper-data="{&quot;index&quot;:null}" fill="#6a009f" stroke="none" stroke-width="1"/><path d="M366.99035,238.24659v-21.09208h14.70146v4.36281h-9.73952v3.91731h8.38766v4.1631h-8.38766v4.28601h10.04677v4.36281z" data-paper-data="{&quot;index&quot;:null}" fill="#6a009f" stroke="none" stroke-width="1"/><path d="M270.52684,238.55384c-1.58743,0 -3.05192,-0.26629 -4.39353,-0.79884c-1.33139,-0.53255 -2.49378,-1.28528 -3.48718,-2.25823c-0.98318,-0.98318 -1.74105,-2.14044 -2.27358,-3.47183c-0.53255,-1.34163 -0.79884,-2.81637 -0.79884,-4.42427c0,-1.56693 0.28163,-3.01096 0.8449,-4.3321c0.56329,-1.33136 1.34163,-2.48353 2.33503,-3.45646c0.99342,-0.97293 2.16606,-1.73078 3.51792,-2.27358c1.3621,-0.5428 2.84709,-0.81418 4.45498,-0.81418c1.00367,0 1.98682,0.13313 2.9495,0.39942c0.97293,0.25602 1.87416,0.64009 2.70371,1.15215c0.8398,0.51208 1.55669,1.12143 2.15069,1.82807l-3.13384,3.57935c-0.41991,-0.44038 -0.86539,-0.82445 -1.33649,-1.15215c-0.47112,-0.33796 -0.9883,-0.59398 -1.55156,-0.7681c-0.56327,-0.18434 -1.16752,-0.27651 -1.81273,-0.27651c-0.79884,0 -1.55669,0.1485 -2.27358,0.4455c-0.70664,0.28676 -1.32626,0.69642 -1.85881,1.22897c-0.53255,0.53255 -0.95244,1.18288 -1.25969,1.95098c-0.297,0.75787 -0.4455,1.6079 -0.4455,2.55011c0,0.93197 0.1485,1.77687 0.4455,2.53474c0.30725,0.74761 0.73226,1.39282 1.27505,1.93561c0.5428,0.5428 1.19823,0.95756 1.96633,1.24432c0.77834,0.27651 1.63861,0.41476 2.58082,0.41476c0.64521,0 1.25458,-0.09217 1.8281,-0.27651c0.58376,-0.18434 1.12141,-0.43013 1.613,-0.73738c0.50181,-0.31747 0.94221,-0.67593 1.32114,-1.07535l2.47329,3.91731c-0.50183,0.56327 -1.17262,1.07022 -2.01244,1.52085c-0.82955,0.44038 -1.75127,0.78859 -2.76516,1.04461c-1.01389,0.24579 -2.03291,0.36868 -3.05704,0.36868z" data-paper-data="{&quot;index&quot;:null}" fill="#6a009f" stroke="none" stroke-width="1"/><path d="M344.62886,238.24659l-8.43377,-21.09208h5.33064l4.07093,10.75343c0.24579,0.62472 0.45063,1.16752 0.61447,1.62836c0.17409,0.46087 0.32259,0.89613 0.44548,1.30577c0.09496,0.28485 0.1847,0.57233 0.26923,0.8624c0.00755,-0.0265 0.0151,-0.05279 0.02265,-0.07893c0.16385,-0.53255 0.34309,-1.08047 0.53767,-1.64373c0.20483,-0.57351 0.46087,-1.26481 0.7681,-2.07387l3.91733,-10.75343h5.23845l-8.4952,21.09208z" data-paper-data="{&quot;index&quot;:null}" fill="#6a009f" stroke="none" stroke-width="1"/><path d="M98.00093,238.24659v-4.31673h3.564v-12.47397h-3.564v-4.30136h12.27426v4.30136h-3.59472v12.47397h3.59472v4.31673z" data-paper-data="{&quot;index&quot;:null}" fill="#6a009f" stroke="none" stroke-width="1"/><path d="M314.77124,238.24659v-4.31673h3.564v-12.47397h-3.564v-4.30136h12.27426v4.30136h-3.59472v12.47397h3.59472v4.31673z" data-paper-data="{&quot;index&quot;:null}" fill="#6a009f" stroke="none" stroke-width="1"/><path d="M293.23679,238.24659v-16.57564h-6.26771v-4.51644h17.80459v4.51644h-6.42133v16.57564z" data-paper-data="{&quot;index&quot;:null}" fill="#6a009f" stroke="none" stroke-width="1"/><path d="M157.66124,238.24659v-16.57564h-6.26771v-4.51644h17.80459v4.51644h-6.42131v16.57564z" data-paper-data="{&quot;index&quot;:null}" fill="#6a009f" stroke="none" stroke-width="1"/><path d="M239.76486,142.42807c0,-15.71261 -12.73758,-28.45018 -28.45018,-28.45018v-0.11756c15.71261,0 28.45018,-12.7376 28.45018,-28.45018h0.47026c0,15.71261 12.73758,28.45018 28.45018,28.45018l-0.3527,-0.05878c-15.71261,0 -28.45018,12.7376 -28.45018,28.45018z" data-paper-data="{&quot;index&quot;:null}" fill="#00c1f5" stroke="#000000" stroke-width="0"/></g></g></svg>